<svg width="2914" height="2913" viewBox="0 0 2914 2913" fill="none" xmlns="http://www.w3.org/2000/svg">
<path d="M1730.07 0.644409H1183.93C530.422 0.644409 0.644409 652.733 0.644409 1457C0.644409 2261.27 530.422 2913.36 1183.93 2913.36H1730.07C2383.58 2913.36 2913.36 2261.27 2913.36 1457C2913.36 652.733 2383.58 0.644409 1730.07 0.644409ZM2781.62 1092.91H2326.51C2313.54 1031.35 2297.1 970.573 2277.27 910.867H2730.61C2751.05 969.536 2767.75 1030.33 2781.62 1092.91ZM2541.98 546.778C2583.42 604.52 2620.33 665.383 2652.38 728.822H2204.73C2174.33 664.822 2140.37 604.201 2102.68 546.778H2541.98V546.778ZM2119.04 182.689C2213.98 228.2 2302.51 289.714 2382.69 364.733H1965.27V369.711C1899.85 298.6 1829.27 234.953 1752.11 182.689H2119.04ZM1183.93 2822.33C581.622 2822.33 91.6666 2209.89 91.6666 1457C91.6666 704.11 581.622 91.6666 1183.93 91.6666C1786.24 91.6666 2276.2 704.11 2276.2 1457C2276.2 2209.89 1786.24 2822.33 1183.93 2822.33ZM2541.98 2367.22H2102.69C2140.38 2309.8 2174.33 2249.18 2204.74 2185.18H2652.38C2620.33 2248.62 2583.42 2309.48 2541.98 2367.22V2367.22ZM1636.56 1513C1671.4 1571.67 1688.83 1640.11 1688.83 1718.51C1688.83 1838.87 1652.91 1939.13 1581.09 2019.31C1509.45 2099.67 1405.98 2146.96 1270.69 2161.18V2367.22H1098.24V2162.25C872.643 2139.13 733.083 2007.93 679.221 1769L945.887 1699.49C970.6 1849.71 1052.38 1924.73 1191.22 1924.73C1256.11 1924.73 1304.11 1908.73 1334.69 1876.56C1365.27 1844.38 1380.56 1805.62 1380.56 1760.11C1380.56 1713 1365.27 1677.26 1334.69 1653.08C1304.11 1628.73 1236.02 1597.97 1130.6 1560.64C1035.85 1527.75 961.708 1495.39 908.375 1463.04C855.042 1431.04 811.664 1386.07 778.418 1328.28C745.172 1270.32 728.464 1202.77 728.464 1125.97C728.464 1025.17 758.33 934.322 817.711 853.614C877.092 773.082 970.6 723.833 1098.25 705.879V546.778H1270.69V705.89C1463.41 729.004 1588.21 837.981 1645.1 1033L1407.41 1130.42C1361.01 996.735 1289.54 929.89 1192.48 929.89C1143.76 929.89 1104.65 944.824 1075.32 974.69C1045.81 1004.56 1031.06 1040.82 1031.06 1083.31C1031.06 1126.69 1045.28 1159.94 1073.72 1183.23C1101.99 1206.34 1162.97 1234.96 1256.13 1269.27C1358.53 1306.61 1438.88 1341.98 1497.02 1375.23C1555.31 1408.47 1601.71 1454.51 1636.56 1513V1513Z" fill="white"/>
</svg>
